<?xml version="1.0" standalone="no"?>
<!DOCTYPE svg PUBLIC "-//W3C//DTD SVG 20010904//EN"
 "http://www.w3.org/TR/2001/REC-SVG-20010904/DTD/svg10.dtd">
<svg version="1.0" xmlns="http://www.w3.org/2000/svg"
 width="700.000000pt" height="700.000000pt" viewBox="0 0 700.000000 700.000000"
 preserveAspectRatio="xMidYMid meet">
<metadata>
Created by potrace 1.14, written by Peter Selinger 2001-2017
</metadata>
<g transform="translate(0.000000,700.000000) scale(0.100000,-0.100000)"
fill="#000000" stroke="none">
<path d="M1390 6250 c-141 -17 -290 -124 -353 -254 -58 -119 -57 -77 -57
-1481 0 -1410 -3 -1344 58 -1464 55 -111 191 -212 320 -240 75 -16 4208 -16
4284 0 165 35 320 185 365 355 12 47 15 2650 3 2709 -37 178 -198 340 -370
371 -49 9 -4177 12 -4250 4z m4112 -264 c139 -49 238 -158 275 -301 8 -32 9
-2245 1 -2299 -23 -149 -160 -287 -333 -332 -76 -20 -3847 -20 -3923 1 -141
37 -245 134 -291 274 -21 61 -21 69 -19 1209 l3 1147 31 66 c55 114 170 208
301 244 39 11 414 13 1968 14 l1920 1 67 -24z"/>
<path d="M3717 5577 c-10 -7 -40 -93 -76 -217 -270 -935 -343 -1190 -405
-1400 -102 -352 -126 -443 -121 -460 6 -18 53 -38 129 -55 30 -6 66 16 66 41
0 7 16 68 36 136 35 122 101 348 313 1083 60 209 137 476 171 594 45 155 60
219 53 230 -10 15 -69 41 -124 54 -14 4 -33 1 -42 -6z"/>
<path d="M4078 5242 c-32 -33 -58 -67 -58 -78 0 -11 126 -145 316 -335 l316
-317 -316 -316 c-174 -174 -316 -323 -316 -331 0 -14 65 -94 100 -122 8 -7 24
-13 35 -13 29 0 775 757 775 787 0 17 -102 125 -380 403 -209 209 -388 380
-397 380 -9 0 -42 -26 -75 -58z"/>
<path d="M2447 4912 c-296 -296 -377 -382 -377 -402 0 -19 85 -109 379 -402
243 -244 385 -378 397 -378 27 0 134 100 134 125 0 12 -121 140 -317 336
l-316 318 316 317 c178 177 317 324 317 334 0 26 -106 130 -133 130 -16 0
-128 -106 -400 -378z"/>
<path d="M2423 2560 c-29 -8 -49 -23 -68 -54 -16 -24 -19 -50 -20 -167 -1
-153 8 -191 53 -224 27 -20 43 -20 1102 -21 849 -1 1082 2 1107 12 61 24 73
61 73 217 0 157 -11 196 -64 224 -28 16 -124 17 -1098 18 -586 0 -1075 -2
-1085 -5z"/>
</g>
</svg>
